<svg xmlns="http://www.w3.org/2000/svg" width="1200" height="550" viewBox="0 0 1200 550"><style>text{font-family:Arial,sans-serif;fill:#17202a}.t{font-size:18px;font-weight:bold}.h{font-size:13px;font-weight:bold}.b{font-size:11px}.box{fill:#fff;stroke:#34495e;stroke-width:2}.gate{fill:#f8f9f9;stroke:#34495e;stroke-width:2}.pending{fill:#fff;stroke:#7b241c;stroke-width:2;stroke-dasharray:7 5}.line{stroke:#566573;stroke-width:2;fill:none}</style><text x="35" y="35" class="t">FloodWatch Physical Hardware Regression Gate</text>
<rect class="box" x="35" y="100" width="135" height="95" rx="8"/><text x="72" y="130" class="h">Pico</text><text x="55" y="158" class="b">analogue input</text><text x="55" y="178" class="b">controlled test</text>
<rect class="box" x="220" y="100" width="145" height="95" rx="8"/><text x="255" y="130" class="h">USB / COM</text><text x="245" y="158" class="b">serial readings</text><text x="245" y="178" class="b">actual assigned port</text>
<rect class="box" x="415" y="100" width="155" height="95" rx="8"/><text x="450" y="130" class="h">Serial Bridge</text><text x="445" y="158" class="b">hardware payload</text><text x="445" y="178" class="b">HTTP POST</text>
<rect class="box" x="620" y="100" width="155" height="95" rx="8"/><text x="660" y="130" class="h">FastAPI</text><text x="645" y="158" class="b">validation + service</text><text x="645" y="178" class="b">HTTP 200 evidence</text>
<rect class="box" x="825" y="85" width="165" height="125" rx="8"/><text x="858" y="115" class="h">MySQL</text><text x="850" y="143" class="b">LOCAL_SENSOR obs.</text><text x="850" y="163" class="b">typed threshold</text><text x="850" y="183" class="b">legacy rollback row</text>
<rect class="box" x="1040" y="100" width="130" height="95" rx="8"/><text x="1064" y="130" class="h">Dashboard</text><text x="1060" y="158" class="b">hardware status</text><text x="1060" y="178" class="b">hybrid status</text>
<path class="line" d="M170 147 H220"/><path class="line" d="M365 147 H415"/><path class="line" d="M570 147 H620"/><path class="line" d="M775 147 H825"/><path class="line" d="M990 147 H1040"/>
<rect class="gate" x="415" y="330" width="365" height="100" rx="8"/><text x="455" y="360" class="h">Read-only verification script</text><text x="450" y="387" class="b">normalized hardware observation + threshold</text><text x="450" y="407" class="b">dual-write parity + null unmeasured values</text>
<rect class="pending" x="850" y="330" width="320" height="100" rx="8"/><text x="900" y="360" class="h">Gate status: PENDING PHYSICAL RUN</text><text x="885" y="387" class="b">CI cannot prove Pico/COM4 or dashboard display.</text><text x="885" y="407" class="b">DB-5 remains blocked until user-run evidence.</text>
<path class="line" d="M697 195 V280 H597 V330"/><path class="line" d="M780 380 H850"/>
<text x="35" y="505" class="b">PASS establishes post-migration sensing-to-software integration only; it is not sensor calibration, Lokoja field validation, or predictive-model validation.</text></svg>